<svg xmlns="http://www.w3.org/2000/svg" version="1.1" xmlns:xlink="http://www.w3.org/1999/xlink" xmlns:svgjs="http://svgjs.dev/svgjs" viewBox="0 0 800 800" opacity="0.54" width="800" height="800"><g stroke-width="1.25" stroke="#0a97b4" fill="none"><circle r="5.789473684210526" cx="0" cy="0" opacity="0.25"></circle><circle r="1.4473684210526314" cx="0" cy="0" fill="#0a97b4" stroke="none"></circle><circle r="5.789473684210526" cx="53.333333333333336" cy="0" opacity="0.25"></circle><circle r="1.4473684210526314" cx="53.333333333333336" cy="0" fill="#0a97b4" stroke="none"></circle><circle r="5.789473684210526" cx="106.66666666666667" cy="0" opacity="0.25"></circle><circle r="1.4473684210526314" cx="106.66666666666667" cy="0" fill="#0a97b4" stroke="none"></circle><circle r="5.789473684210526" cx="160" cy="0" opacity="0.25"></circle><circle r="1.4473684210526314" cx="160" cy="0" fill="#0a97b4" stroke="none"></circle><circle r="5.789473684210526" cx="213.33333333333334" cy="0" opacity="0.25"></circle><circle r="1.4473684210526314" cx="213.33333333333334" cy="0" fill="#0a97b4" stroke="none"></circle><circle r="5.789473684210526" cx="266.6666666666667" cy="0" opacity="0.25"></circle><circle r="1.4473684210526314" cx="266.6666666666667" cy="0" fill="#0a97b4" stroke="none"></circle><circle r="5.789473684210526" cx="320" cy="0" opacity="0.25"></circle><circle r="1.4473684210526314" cx="320" cy="0" fill="#0a97b4" stroke="none"></circle><circle r="5.789473684210526" cx="373.3333333333333" cy="0" opacity="0.25"></circle><circle r="1.4473684210526314" cx="373.3333333333333" cy="0" fill="#0a97b4" stroke="none"></circle><circle r="5.789473684210526" cx="426.66666666666663" cy="0" opacity="0.25"></circle><circle r="1.4473684210526314" cx="426.66666666666663" cy="0" fill="#0a97b4" stroke="none"></circle><circle r="5.789473684210526" cx="479.99999999999994" cy="0" opacity="0.25"></circle><circle r="1.4473684210526314" cx="479.99999999999994" cy="0" fill="#0a97b4" stroke="none"></circle><circle r="5.789473684210526" cx="533.3333333333333" cy="0" opacity="0.25"></circle><circle r="1.4473684210526314" cx="533.3333333333333" cy="0" fill="#0a97b4" stroke="none"></circle><circle r="5.789473684210526" cx="586.6666666666666" cy="0" opacity="0.25"></circle><circle r="1.4473684210526314" cx="586.6666666666666" cy="0" fill="#0a97b4" stroke="none"></circle><circle r="5.789473684210526" cx="640" cy="0" opacity="0.25"></circle><circle r="1.4473684210526314" cx="640" cy="0" fill="#0a97b4" stroke="none"></circle><circle r="5.789473684210526" cx="693.3333333333334" cy="0" opacity="0.25"></circle><circle r="1.4473684210526314" cx="693.3333333333334" cy="0" fill="#0a97b4" stroke="none"></circle><circle r="5.789473684210526" cx="746.6666666666667" cy="0" opacity="0.25"></circle><circle r="1.4473684210526314" cx="746.6666666666667" cy="0" fill="#0a97b4" stroke="none"></circle><circle r="5.789473684210526" cx="800.0000000000001" cy="0" opacity="0.25"></circle><circle r="1.4473684210526314" cx="800.0000000000001" cy="0" fill="#0a97b4" stroke="none"></circle><circle r="5.789473684210526" cx="0" cy="57.142857142857146" opacity="0.25"></circle><circle r="1.4473684210526314" cx="0" cy="57.142857142857146" fill="#0a97b4" stroke="none"></circle><circle r="5.789473684210526" cx="53.333333333333336" cy="57.142857142857146" opacity="0.25"></circle><circle r="1.4473684210526314" cx="53.333333333333336" cy="57.142857142857146" fill="#0a97b4" stroke="none"></circle><circle r="5.789473684210526" cx="106.66666666666667" cy="57.142857142857146" opacity="0.25"></circle><circle r="1.4473684210526314" cx="106.66666666666667" cy="57.142857142857146" fill="#0a97b4" stroke="none"></circle><circle r="5.789473684210526" cx="160" cy="57.142857142857146" opacity="0.25"></circle><circle r="1.4473684210526314" cx="160" cy="57.142857142857146" fill="#0a97b4" stroke="none"></circle><circle r="5.789473684210526" cx="213.33333333333334" cy="57.142857142857146" opacity="0.25"></circle><circle r="1.4473684210526314" cx="213.33333333333334" cy="57.142857142857146" fill="#0a97b4" stroke="none"></circle><circle r="5.789473684210526" cx="266.6666666666667" cy="57.142857142857146" opacity="0.25"></circle><circle r="1.4473684210526314" cx="266.6666666666667" cy="57.142857142857146" fill="#0a97b4" stroke="none"></circle><circle r="5.789473684210526" cx="320" cy="57.142857142857146" opacity="0.25"></circle><circle r="1.4473684210526314" cx="320" cy="57.142857142857146" fill="#0a97b4" stroke="none"></circle><circle r="5.789473684210526" cx="373.3333333333333" cy="57.142857142857146" opacity="0.25"></circle><circle r="1.4473684210526314" cx="373.3333333333333" cy="57.142857142857146" fill="#0a97b4" stroke="none"></circle><circle r="5.789473684210526" cx="426.66666666666663" cy="57.142857142857146" opacity="0.25"></circle><circle r="1.4473684210526314" cx="426.66666666666663" cy="57.142857142857146" fill="#0a97b4" stroke="none"></circle><circle r="5.789473684210526" cx="479.99999999999994" cy="57.142857142857146" opacity="0.25"></circle><circle r="1.4473684210526314" cx="479.99999999999994" cy="57.142857142857146" fill="#0a97b4" stroke="none"></circle><circle r="5.789473684210526" cx="533.3333333333333" cy="57.142857142857146" opacity="0.25"></circle><circle r="1.4473684210526314" cx="533.3333333333333" cy="57.142857142857146" fill="#0a97b4" stroke="none"></circle><circle r="5.789473684210526" cx="586.6666666666666" cy="57.142857142857146" opacity="0.25"></circle><circle r="1.4473684210526314" cx="586.6666666666666" cy="57.142857142857146" fill="#0a97b4" stroke="none"></circle><circle r="5.789473684210526" cx="640" cy="57.142857142857146" opacity="0.25"></circle><circle r="1.4473684210526314" cx="640" cy="57.142857142857146" fill="#0a97b4" stroke="none"></circle><circle r="5.789473684210526" cx="693.3333333333334" cy="57.142857142857146" opacity="0.25"></circle><circle r="1.4473684210526314" cx="693.3333333333334" cy="57.142857142857146" fill="#0a97b4" stroke="none"></circle><circle r="5.789473684210526" cx="746.6666666666667" cy="57.142857142857146" opacity="0.25"></circle><circle r="1.4473684210526314" cx="746.6666666666667" cy="57.142857142857146" fill="#0a97b4" stroke="none"></circle><circle r="5.789473684210526" cx="800.0000000000001" cy="57.142857142857146" opacity="0.25"></circle><circle r="1.4473684210526314" cx="800.0000000000001" cy="57.142857142857146" fill="#0a97b4" stroke="none"></circle><circle r="5.789473684210526" cx="0" cy="114.28571428571429" opacity="0.25"></circle><circle r="1.4473684210526314" cx="0" cy="114.28571428571429" fill="#0a97b4" stroke="none"></circle><circle r="5.789473684210526" cx="53.333333333333336" cy="114.28571428571429" opacity="0.25"></circle><circle r="1.4473684210526314" cx="53.333333333333336" cy="114.28571428571429" fill="#0a97b4" stroke="none"></circle><circle r="5.789473684210526" cx="106.66666666666667" cy="114.28571428571429" opacity="0.25"></circle><circle r="1.4473684210526314" cx="106.66666666666667" cy="114.28571428571429" fill="#0a97b4" stroke="none"></circle><circle r="5.789473684210526" cx="160" cy="114.28571428571429" opacity="0.25"></circle><circle r="1.4473684210526314" cx="160" cy="114.28571428571429" fill="#0a97b4" stroke="none"></circle><circle r="5.789473684210526" cx="213.33333333333334" cy="114.28571428571429" opacity="0.25"></circle><circle r="1.4473684210526314" cx="213.33333333333334" cy="114.28571428571429" fill="#0a97b4" stroke="none"></circle><circle r="5.789473684210526" cx="266.6666666666667" cy="114.28571428571429" opacity="0.25"></circle><circle r="1.4473684210526314" cx="266.6666666666667" cy="114.28571428571429" fill="#0a97b4" stroke="none"></circle><circle r="5.789473684210526" cx="320" cy="114.28571428571429" opacity="0.25"></circle><circle r="1.4473684210526314" cx="320" cy="114.28571428571429" fill="#0a97b4" stroke="none"></circle><circle r="5.789473684210526" cx="373.3333333333333" cy="114.28571428571429" opacity="0.25"></circle><circle r="1.4473684210526314" cx="373.3333333333333" cy="114.28571428571429" fill="#0a97b4" stroke="none"></circle><circle r="5.789473684210526" cx="426.66666666666663" cy="114.28571428571429" opacity="0.25"></circle><circle r="1.4473684210526314" cx="426.66666666666663" cy="114.28571428571429" fill="#0a97b4" stroke="none"></circle><circle r="5.789473684210526" cx="479.99999999999994" cy="114.28571428571429" opacity="0.25"></circle><circle r="1.4473684210526314" cx="479.99999999999994" cy="114.28571428571429" fill="#0a97b4" stroke="none"></circle><circle r="5.789473684210526" cx="533.3333333333333" cy="114.28571428571429" opacity="0.25"></circle><circle r="1.4473684210526314" cx="533.3333333333333" cy="114.28571428571429" fill="#0a97b4" stroke="none"></circle><circle r="5.789473684210526" cx="586.6666666666666" cy="114.28571428571429" opacity="0.25"></circle><circle r="1.4473684210526314" cx="586.6666666666666" cy="114.28571428571429" fill="#0a97b4" stroke="none"></circle><circle r="5.789473684210526" cx="640" cy="114.28571428571429" opacity="0.25"></circle><circle r="1.4473684210526314" cx="640" cy="114.28571428571429" fill="#0a97b4" stroke="none"></circle><circle r="5.789473684210526" cx="693.3333333333334" cy="114.28571428571429" opacity="0.25"></circle><circle r="1.4473684210526314" cx="693.3333333333334" cy="114.28571428571429" fill="#0a97b4" stroke="none"></circle><circle r="5.789473684210526" cx="746.6666666666667" cy="114.28571428571429" opacity="0.25"></circle><circle r="1.4473684210526314" cx="746.6666666666667" cy="114.28571428571429" fill="#0a97b4" stroke="none"></circle><circle r="5.789473684210526" cx="800.0000000000001" cy="114.28571428571429" opacity="0.25"></circle><circle r="1.4473684210526314" cx="800.0000000000001" cy="114.28571428571429" fill="#0a97b4" stroke="none"></circle><circle r="5.789473684210526" cx="0" cy="171.42857142857144" opacity="0.25"></circle><circle r="1.4473684210526314" cx="0" cy="171.42857142857144" fill="#0a97b4" stroke="none"></circle><circle r="5.789473684210526" cx="53.333333333333336" cy="171.42857142857144" opacity="0.25"></circle><circle r="1.4473684210526314" cx="53.333333333333336" cy="171.42857142857144" fill="#0a97b4" stroke="none"></circle><circle r="5.789473684210526" cx="106.66666666666667" cy="171.42857142857144" opacity="0.25"></circle><circle r="1.4473684210526314" cx="106.66666666666667" cy="171.42857142857144" fill="#0a97b4" stroke="none"></circle><circle r="5.789473684210526" cx="160" cy="171.42857142857144" opacity="0.25"></circle><circle r="1.4473684210526314" cx="160" cy="171.42857142857144" fill="#0a97b4" stroke="none"></circle><circle r="5.789473684210526" cx="213.33333333333334" cy="171.42857142857144" opacity="0.25"></circle><circle r="1.4473684210526314" cx="213.33333333333334" cy="171.42857142857144" fill="#0a97b4" stroke="none"></circle><circle r="5.789473684210526" cx="266.6666666666667" cy="171.42857142857144" opacity="0.25"></circle><circle r="1.4473684210526314" cx="266.6666666666667" cy="171.42857142857144" fill="#0a97b4" stroke="none"></circle><circle r="5.789473684210526" cx="320" cy="171.42857142857144" opacity="0.25"></circle><circle r="1.4473684210526314" cx="320" cy="171.42857142857144" fill="#0a97b4" stroke="none"></circle><circle r="5.789473684210526" cx="373.3333333333333" cy="171.42857142857144" opacity="0.25"></circle><circle r="1.4473684210526314" cx="373.3333333333333" cy="171.42857142857144" fill="#0a97b4" stroke="none"></circle><circle r="5.789473684210526" cx="426.66666666666663" cy="171.42857142857144" opacity="0.25"></circle><circle r="1.4473684210526314" cx="426.66666666666663" cy="171.42857142857144" fill="#0a97b4" stroke="none"></circle><circle r="5.789473684210526" cx="479.99999999999994" cy="171.42857142857144" opacity="0.25"></circle><circle r="1.4473684210526314" cx="479.99999999999994" cy="171.42857142857144" fill="#0a97b4" stroke="none"></circle><circle r="5.789473684210526" cx="533.3333333333333" cy="171.42857142857144" opacity="0.25"></circle><circle r="1.4473684210526314" cx="533.3333333333333" cy="171.42857142857144" fill="#0a97b4" stroke="none"></circle><circle r="5.789473684210526" cx="586.6666666666666" cy="171.42857142857144" opacity="0.25"></circle><circle r="1.4473684210526314" cx="586.6666666666666" cy="171.42857142857144" fill="#0a97b4" stroke="none"></circle><circle r="5.789473684210526" cx="640" cy="171.42857142857144" opacity="0.25"></circle><circle r="1.4473684210526314" cx="640" cy="171.42857142857144" fill="#0a97b4" stroke="none"></circle><circle r="5.789473684210526" cx="693.3333333333334" cy="171.42857142857144" opacity="0.25"></circle><circle r="1.4473684210526314" cx="693.3333333333334" cy="171.42857142857144" fill="#0a97b4" stroke="none"></circle><circle r="5.789473684210526" cx="746.6666666666667" cy="171.42857142857144" opacity="0.25"></circle><circle r="1.4473684210526314" cx="746.6666666666667" cy="171.42857142857144" fill="#0a97b4" stroke="none"></circle><circle r="5.789473684210526" cx="800.0000000000001" cy="171.42857142857144" opacity="0.25"></circle><circle r="1.4473684210526314" cx="800.0000000000001" cy="171.42857142857144" fill="#0a97b4" stroke="none"></circle><circle r="5.789473684210526" cx="0" cy="228.57142857142858" opacity="0.25"></circle><circle r="1.4473684210526314" cx="0" cy="228.57142857142858" fill="#0a97b4" stroke="none"></circle><circle r="5.789473684210526" cx="53.333333333333336" cy="228.57142857142858" opacity="0.25"></circle><circle r="1.4473684210526314" cx="53.333333333333336" cy="228.57142857142858" fill="#0a97b4" stroke="none"></circle><circle r="5.789473684210526" cx="106.66666666666667" cy="228.57142857142858" opacity="0.25"></circle><circle r="1.4473684210526314" cx="106.66666666666667" cy="228.57142857142858" fill="#0a97b4" stroke="none"></circle><circle r="5.789473684210526" cx="160" cy="228.57142857142858" opacity="0.25"></circle><circle r="1.4473684210526314" cx="160" cy="228.57142857142858" fill="#0a97b4" stroke="none"></circle><circle r="5.789473684210526" cx="213.33333333333334" cy="228.57142857142858" opacity="0.25"></circle><circle r="1.4473684210526314" cx="213.33333333333334" cy="228.57142857142858" fill="#0a97b4" stroke="none"></circle><circle r="5.789473684210526" cx="266.6666666666667" cy="228.57142857142858" opacity="0.25"></circle><circle r="1.4473684210526314" cx="266.6666666666667" cy="228.57142857142858" fill="#0a97b4" stroke="none"></circle><circle r="5.789473684210526" cx="320" cy="228.57142857142858" opacity="0.25"></circle><circle r="1.4473684210526314" cx="320" cy="228.57142857142858" fill="#0a97b4" stroke="none"></circle><circle r="5.789473684210526" cx="373.3333333333333" cy="228.57142857142858" opacity="0.25"></circle><circle r="1.4473684210526314" cx="373.3333333333333" cy="228.57142857142858" fill="#0a97b4" stroke="none"></circle><circle r="5.789473684210526" cx="426.66666666666663" cy="228.57142857142858" opacity="0.25"></circle><circle r="1.4473684210526314" cx="426.66666666666663" cy="228.57142857142858" fill="#0a97b4" stroke="none"></circle><circle r="5.789473684210526" cx="479.99999999999994" cy="228.57142857142858" opacity="0.25"></circle><circle r="1.4473684210526314" cx="479.99999999999994" cy="228.57142857142858" fill="#0a97b4" stroke="none"></circle><circle r="5.789473684210526" cx="533.3333333333333" cy="228.57142857142858" opacity="0.25"></circle><circle r="1.4473684210526314" cx="533.3333333333333" cy="228.57142857142858" fill="#0a97b4" stroke="none"></circle><circle r="5.789473684210526" cx="586.6666666666666" cy="228.57142857142858" opacity="0.25"></circle><circle r="1.4473684210526314" cx="586.6666666666666" cy="228.57142857142858" fill="#0a97b4" stroke="none"></circle><circle r="5.789473684210526" cx="640" cy="228.57142857142858" opacity="0.25"></circle><circle r="1.4473684210526314" cx="640" cy="228.57142857142858" fill="#0a97b4" stroke="none"></circle><circle r="5.789473684210526" cx="693.3333333333334" cy="228.57142857142858" opacity="0.25"></circle><circle r="1.4473684210526314" cx="693.3333333333334" cy="228.57142857142858" fill="#0a97b4" stroke="none"></circle><circle r="5.789473684210526" cx="746.6666666666667" cy="228.57142857142858" opacity="0.25"></circle><circle r="1.4473684210526314" cx="746.6666666666667" cy="228.57142857142858" fill="#0a97b4" stroke="none"></circle><circle r="5.789473684210526" cx="800.0000000000001" cy="228.57142857142858" opacity="0.25"></circle><circle r="1.4473684210526314" cx="800.0000000000001" cy="228.57142857142858" fill="#0a97b4" stroke="none"></circle><circle r="5.789473684210526" cx="0" cy="285.7142857142857" opacity="0.25"></circle><circle r="1.4473684210526314" cx="0" cy="285.7142857142857" fill="#0a97b4" stroke="none"></circle><circle r="5.789473684210526" cx="53.333333333333336" cy="285.7142857142857" opacity="0.25"></circle><circle r="1.4473684210526314" cx="53.333333333333336" cy="285.7142857142857" fill="#0a97b4" stroke="none"></circle><circle r="5.789473684210526" cx="106.66666666666667" cy="285.7142857142857" opacity="0.25"></circle><circle r="1.4473684210526314" cx="106.66666666666667" cy="285.7142857142857" fill="#0a97b4" stroke="none"></circle><circle r="5.789473684210526" cx="160" cy="285.7142857142857" opacity="0.25"></circle><circle r="1.4473684210526314" cx="160" cy="285.7142857142857" fill="#0a97b4" stroke="none"></circle><circle r="5.789473684210526" cx="213.33333333333334" cy="285.7142857142857" opacity="0.25"></circle><circle r="1.4473684210526314" cx="213.33333333333334" cy="285.7142857142857" fill="#0a97b4" stroke="none"></circle><circle r="5.789473684210526" cx="266.6666666666667" cy="285.7142857142857" opacity="0.25"></circle><circle r="1.4473684210526314" cx="266.6666666666667" cy="285.7142857142857" fill="#0a97b4" stroke="none"></circle><circle r="5.789473684210526" cx="320" cy="285.7142857142857" opacity="0.25"></circle><circle r="1.4473684210526314" cx="320" cy="285.7142857142857" fill="#0a97b4" stroke="none"></circle><circle r="5.789473684210526" cx="373.3333333333333" cy="285.7142857142857" opacity="0.25"></circle><circle r="1.4473684210526314" cx="373.3333333333333" cy="285.7142857142857" fill="#0a97b4" stroke="none"></circle><circle r="5.789473684210526" cx="426.66666666666663" cy="285.7142857142857" opacity="0.25"></circle><circle r="1.4473684210526314" cx="426.66666666666663" cy="285.7142857142857" fill="#0a97b4" stroke="none"></circle><circle r="5.789473684210526" cx="479.99999999999994" cy="285.7142857142857" opacity="0.25"></circle><circle r="1.4473684210526314" cx="479.99999999999994" cy="285.7142857142857" fill="#0a97b4" stroke="none"></circle><circle r="5.789473684210526" cx="533.3333333333333" cy="285.7142857142857" opacity="0.25"></circle><circle r="1.4473684210526314" cx="533.3333333333333" cy="285.7142857142857" fill="#0a97b4" stroke="none"></circle><circle r="5.789473684210526" cx="586.6666666666666" cy="285.7142857142857" opacity="0.25"></circle><circle r="1.4473684210526314" cx="586.6666666666666" cy="285.7142857142857" fill="#0a97b4" stroke="none"></circle><circle r="5.789473684210526" cx="640" cy="285.7142857142857" opacity="0.25"></circle><circle r="1.4473684210526314" cx="640" cy="285.7142857142857" fill="#0a97b4" stroke="none"></circle><circle r="5.789473684210526" cx="693.3333333333334" cy="285.7142857142857" opacity="0.25"></circle><circle r="1.4473684210526314" cx="693.3333333333334" cy="285.7142857142857" fill="#0a97b4" stroke="none"></circle><circle r="5.789473684210526" cx="746.6666666666667" cy="285.7142857142857" opacity="0.25"></circle><circle r="1.4473684210526314" cx="746.6666666666667" cy="285.7142857142857" fill="#0a97b4" stroke="none"></circle><circle r="5.789473684210526" cx="800.0000000000001" cy="285.7142857142857" opacity="0.25"></circle><circle r="1.4473684210526314" cx="800.0000000000001" cy="285.7142857142857" fill="#0a97b4" stroke="none"></circle><circle r="5.789473684210526" cx="0" cy="342.8571428571429" opacity="0.25"></circle><circle r="1.4473684210526314" cx="0" cy="342.8571428571429" fill="#0a97b4" stroke="none"></circle><circle r="5.789473684210526" cx="53.333333333333336" cy="342.8571428571429" opacity="0.25"></circle><circle r="1.4473684210526314" cx="53.333333333333336" cy="342.8571428571429" fill="#0a97b4" stroke="none"></circle><circle r="5.789473684210526" cx="106.66666666666667" cy="342.8571428571429" opacity="0.25"></circle><circle r="1.4473684210526314" cx="106.66666666666667" cy="342.8571428571429" fill="#0a97b4" stroke="none"></circle><circle r="5.789473684210526" cx="160" cy="342.8571428571429" opacity="0.25"></circle><circle r="1.4473684210526314" cx="160" cy="342.8571428571429" fill="#0a97b4" stroke="none"></circle><circle r="5.789473684210526" cx="213.33333333333334" cy="342.8571428571429" opacity="0.25"></circle><circle r="1.4473684210526314" cx="213.33333333333334" cy="342.8571428571429" fill="#0a97b4" stroke="none"></circle><circle r="5.789473684210526" cx="266.6666666666667" cy="342.8571428571429" opacity="0.25"></circle><circle r="1.4473684210526314" cx="266.6666666666667" cy="342.8571428571429" fill="#0a97b4" stroke="none"></circle><circle r="5.789473684210526" cx="320" cy="342.8571428571429" opacity="0.25"></circle><circle r="1.4473684210526314" cx="320" cy="342.8571428571429" fill="#0a97b4" stroke="none"></circle><circle r="5.789473684210526" cx="373.3333333333333" cy="342.8571428571429" opacity="0.25"></circle><circle r="1.4473684210526314" cx="373.3333333333333" cy="342.8571428571429" fill="#0a97b4" stroke="none"></circle><circle r="5.789473684210526" cx="426.66666666666663" cy="342.8571428571429" opacity="0.25"></circle><circle r="1.4473684210526314" cx="426.66666666666663" cy="342.8571428571429" fill="#0a97b4" stroke="none"></circle><circle r="5.789473684210526" cx="479.99999999999994" cy="342.8571428571429" opacity="0.25"></circle><circle r="1.4473684210526314" cx="479.99999999999994" cy="342.8571428571429" fill="#0a97b4" stroke="none"></circle><circle r="5.789473684210526" cx="533.3333333333333" cy="342.8571428571429" opacity="0.25"></circle><circle r="1.4473684210526314" cx="533.3333333333333" cy="342.8571428571429" fill="#0a97b4" stroke="none"></circle><circle r="5.789473684210526" cx="586.6666666666666" cy="342.8571428571429" opacity="0.25"></circle><circle r="1.4473684210526314" cx="586.6666666666666" cy="342.8571428571429" fill="#0a97b4" stroke="none"></circle><circle r="5.789473684210526" cx="640" cy="342.8571428571429" opacity="0.25"></circle><circle r="1.4473684210526314" cx="640" cy="342.8571428571429" fill="#0a97b4" stroke="none"></circle><circle r="5.789473684210526" cx="693.3333333333334" cy="342.8571428571429" opacity="0.25"></circle><circle r="1.4473684210526314" cx="693.3333333333334" cy="342.8571428571429" fill="#0a97b4" stroke="none"></circle><circle r="5.789473684210526" cx="746.6666666666667" cy="342.8571428571429" opacity="0.25"></circle><circle r="1.4473684210526314" cx="746.6666666666667" cy="342.8571428571429" fill="#0a97b4" stroke="none"></circle><circle r="5.789473684210526" cx="800.0000000000001" cy="342.8571428571429" opacity="0.25"></circle><circle r="1.4473684210526314" cx="800.0000000000001" cy="342.8571428571429" fill="#0a97b4" stroke="none"></circle><circle r="5.789473684210526" cx="0" cy="400.00000000000006" opacity="0.25"></circle><circle r="1.4473684210526314" cx="0" cy="400.00000000000006" fill="#0a97b4" stroke="none"></circle><circle r="5.789473684210526" cx="53.333333333333336" cy="400.00000000000006" opacity="0.25"></circle><circle r="1.4473684210526314" cx="53.333333333333336" cy="400.00000000000006" fill="#0a97b4" stroke="none"></circle><circle r="5.789473684210526" cx="106.66666666666667" cy="400.00000000000006" opacity="0.25"></circle><circle r="1.4473684210526314" cx="106.66666666666667" cy="400.00000000000006" fill="#0a97b4" stroke="none"></circle><circle r="5.789473684210526" cx="160" cy="400.00000000000006" opacity="0.25"></circle><circle r="1.4473684210526314" cx="160" cy="400.00000000000006" fill="#0a97b4" stroke="none"></circle><circle r="5.789473684210526" cx="213.33333333333334" cy="400.00000000000006" opacity="0.25"></circle><circle r="1.4473684210526314" cx="213.33333333333334" cy="400.00000000000006" fill="#0a97b4" stroke="none"></circle><circle r="5.789473684210526" cx="266.6666666666667" cy="400.00000000000006" opacity="0.25"></circle><circle r="1.4473684210526314" cx="266.6666666666667" cy="400.00000000000006" fill="#0a97b4" stroke="none"></circle><circle r="5.789473684210526" cx="320" cy="400.00000000000006" opacity="0.25"></circle><circle r="1.4473684210526314" cx="320" cy="400.00000000000006" fill="#0a97b4" stroke="none"></circle><circle r="5.789473684210526" cx="373.3333333333333" cy="400.00000000000006" opacity="0.25"></circle><circle r="1.4473684210526314" cx="373.3333333333333" cy="400.00000000000006" fill="#0a97b4" stroke="none"></circle><circle r="5.789473684210526" cx="426.66666666666663" cy="400.00000000000006" opacity="0.25"></circle><circle r="1.4473684210526314" cx="426.66666666666663" cy="400.00000000000006" fill="#0a97b4" stroke="none"></circle><circle r="5.789473684210526" cx="479.99999999999994" cy="400.00000000000006" opacity="0.25"></circle><circle r="1.4473684210526314" cx="479.99999999999994" cy="400.00000000000006" fill="#0a97b4" stroke="none"></circle><circle r="5.789473684210526" cx="533.3333333333333" cy="400.00000000000006" opacity="0.25"></circle><circle r="1.4473684210526314" cx="533.3333333333333" cy="400.00000000000006" fill="#0a97b4" stroke="none"></circle><circle r="5.789473684210526" cx="586.6666666666666" cy="400.00000000000006" opacity="0.25"></circle><circle r="1.4473684210526314" cx="586.6666666666666" cy="400.00000000000006" fill="#0a97b4" stroke="none"></circle><circle r="5.789473684210526" cx="640" cy="400.00000000000006" opacity="0.25"></circle><circle r="1.4473684210526314" cx="640" cy="400.00000000000006" fill="#0a97b4" stroke="none"></circle><circle r="5.789473684210526" cx="693.3333333333334" cy="400.00000000000006" opacity="0.25"></circle><circle r="1.4473684210526314" cx="693.3333333333334" cy="400.00000000000006" fill="#0a97b4" stroke="none"></circle><circle r="5.789473684210526" cx="746.6666666666667" cy="400.00000000000006" opacity="0.25"></circle><circle r="1.4473684210526314" cx="746.6666666666667" cy="400.00000000000006" fill="#0a97b4" stroke="none"></circle><circle r="5.789473684210526" cx="800.0000000000001" cy="400.00000000000006" opacity="0.25"></circle><circle r="1.4473684210526314" cx="800.0000000000001" cy="400.00000000000006" fill="#0a97b4" stroke="none"></circle><circle r="5.789473684210526" cx="0" cy="457.1428571428572" opacity="0.25"></circle><circle r="1.4473684210526314" cx="0" cy="457.1428571428572" fill="#0a97b4" stroke="none"></circle><circle r="5.789473684210526" cx="53.333333333333336" cy="457.1428571428572" opacity="0.25"></circle><circle r="1.4473684210526314" cx="53.333333333333336" cy="457.1428571428572" fill="#0a97b4" stroke="none"></circle><circle r="5.789473684210526" cx="106.66666666666667" cy="457.1428571428572" opacity="0.25"></circle><circle r="1.4473684210526314" cx="106.66666666666667" cy="457.1428571428572" fill="#0a97b4" stroke="none"></circle><circle r="5.789473684210526" cx="160" cy="457.1428571428572" opacity="0.25"></circle><circle r="1.4473684210526314" cx="160" cy="457.1428571428572" fill="#0a97b4" stroke="none"></circle><circle r="5.789473684210526" cx="213.33333333333334" cy="457.1428571428572" opacity="0.25"></circle><circle r="1.4473684210526314" cx="213.33333333333334" cy="457.1428571428572" fill="#0a97b4" stroke="none"></circle><circle r="5.789473684210526" cx="266.6666666666667" cy="457.1428571428572" opacity="0.25"></circle><circle r="1.4473684210526314" cx="266.6666666666667" cy="457.1428571428572" fill="#0a97b4" stroke="none"></circle><circle r="5.789473684210526" cx="320" cy="457.1428571428572" opacity="0.25"></circle><circle r="1.4473684210526314" cx="320" cy="457.1428571428572" fill="#0a97b4" stroke="none"></circle><circle r="5.789473684210526" cx="373.3333333333333" cy="457.1428571428572" opacity="0.25"></circle><circle r="1.4473684210526314" cx="373.3333333333333" cy="457.1428571428572" fill="#0a97b4" stroke="none"></circle><circle r="5.789473684210526" cx="426.66666666666663" cy="457.1428571428572" opacity="0.25"></circle><circle r="1.4473684210526314" cx="426.66666666666663" cy="457.1428571428572" fill="#0a97b4" stroke="none"></circle><circle r="5.789473684210526" cx="479.99999999999994" cy="457.1428571428572" opacity="0.25"></circle><circle r="1.4473684210526314" cx="479.99999999999994" cy="457.1428571428572" fill="#0a97b4" stroke="none"></circle><circle r="5.789473684210526" cx="533.3333333333333" cy="457.1428571428572" opacity="0.25"></circle><circle r="1.4473684210526314" cx="533.3333333333333" cy="457.1428571428572" fill="#0a97b4" stroke="none"></circle><circle r="5.789473684210526" cx="586.6666666666666" cy="457.1428571428572" opacity="0.25"></circle><circle r="1.4473684210526314" cx="586.6666666666666" cy="457.1428571428572" fill="#0a97b4" stroke="none"></circle><circle r="5.789473684210526" cx="640" cy="457.1428571428572" opacity="0.25"></circle><circle r="1.4473684210526314" cx="640" cy="457.1428571428572" fill="#0a97b4" stroke="none"></circle><circle r="5.789473684210526" cx="693.3333333333334" cy="457.1428571428572" opacity="0.25"></circle><circle r="1.4473684210526314" cx="693.3333333333334" cy="457.1428571428572" fill="#0a97b4" stroke="none"></circle><circle r="5.789473684210526" cx="746.6666666666667" cy="457.1428571428572" opacity="0.25"></circle><circle r="1.4473684210526314" cx="746.6666666666667" cy="457.1428571428572" fill="#0a97b4" stroke="none"></circle><circle r="5.789473684210526" cx="800.0000000000001" cy="457.1428571428572" opacity="0.25"></circle><circle r="1.4473684210526314" cx="800.0000000000001" cy="457.1428571428572" fill="#0a97b4" stroke="none"></circle><circle r="5.789473684210526" cx="0" cy="514.2857142857143" opacity="0.25"></circle><circle r="1.4473684210526314" cx="0" cy="514.2857142857143" fill="#0a97b4" stroke="none"></circle><circle r="5.789473684210526" cx="53.333333333333336" cy="514.2857142857143" opacity="0.25"></circle><circle r="1.4473684210526314" cx="53.333333333333336" cy="514.2857142857143" fill="#0a97b4" stroke="none"></circle><circle r="5.789473684210526" cx="106.66666666666667" cy="514.2857142857143" opacity="0.25"></circle><circle r="1.4473684210526314" cx="106.66666666666667" cy="514.2857142857143" fill="#0a97b4" stroke="none"></circle><circle r="5.789473684210526" cx="160" cy="514.2857142857143" opacity="0.25"></circle><circle r="1.4473684210526314" cx="160" cy="514.2857142857143" fill="#0a97b4" stroke="none"></circle><circle r="5.789473684210526" cx="213.33333333333334" cy="514.2857142857143" opacity="0.25"></circle><circle r="1.4473684210526314" cx="213.33333333333334" cy="514.2857142857143" fill="#0a97b4" stroke="none"></circle><circle r="5.789473684210526" cx="266.6666666666667" cy="514.2857142857143" opacity="0.25"></circle><circle r="1.4473684210526314" cx="266.6666666666667" cy="514.2857142857143" fill="#0a97b4" stroke="none"></circle><circle r="5.789473684210526" cx="320" cy="514.2857142857143" opacity="0.25"></circle><circle r="1.4473684210526314" cx="320" cy="514.2857142857143" fill="#0a97b4" stroke="none"></circle><circle r="5.789473684210526" cx="373.3333333333333" cy="514.2857142857143" opacity="0.25"></circle><circle r="1.4473684210526314" cx="373.3333333333333" cy="514.2857142857143" fill="#0a97b4" stroke="none"></circle><circle r="5.789473684210526" cx="426.66666666666663" cy="514.2857142857143" opacity="0.25"></circle><circle r="1.4473684210526314" cx="426.66666666666663" cy="514.2857142857143" fill="#0a97b4" stroke="none"></circle><circle r="5.789473684210526" cx="479.99999999999994" cy="514.2857142857143" opacity="0.25"></circle><circle r="1.4473684210526314" cx="479.99999999999994" cy="514.2857142857143" fill="#0a97b4" stroke="none"></circle><circle r="5.789473684210526" cx="533.3333333333333" cy="514.2857142857143" opacity="0.25"></circle><circle r="1.4473684210526314" cx="533.3333333333333" cy="514.2857142857143" fill="#0a97b4" stroke="none"></circle><circle r="5.789473684210526" cx="586.6666666666666" cy="514.2857142857143" opacity="0.25"></circle><circle r="1.4473684210526314" cx="586.6666666666666" cy="514.2857142857143" fill="#0a97b4" stroke="none"></circle><circle r="5.789473684210526" cx="640" cy="514.2857142857143" opacity="0.25"></circle><circle r="1.4473684210526314" cx="640" cy="514.2857142857143" fill="#0a97b4" stroke="none"></circle><circle r="5.789473684210526" cx="693.3333333333334" cy="514.2857142857143" opacity="0.25"></circle><circle r="1.4473684210526314" cx="693.3333333333334" cy="514.2857142857143" fill="#0a97b4" stroke="none"></circle><circle r="5.789473684210526" cx="746.6666666666667" cy="514.2857142857143" opacity="0.25"></circle><circle r="1.4473684210526314" cx="746.6666666666667" cy="514.2857142857143" fill="#0a97b4" stroke="none"></circle><circle r="5.789473684210526" cx="800.0000000000001" cy="514.2857142857143" opacity="0.25"></circle><circle r="1.4473684210526314" cx="800.0000000000001" cy="514.2857142857143" fill="#0a97b4" stroke="none"></circle><circle r="5.789473684210526" cx="0" cy="571.4285714285714" opacity="0.25"></circle><circle r="1.4473684210526314" cx="0" cy="571.4285714285714" fill="#0a97b4" stroke="none"></circle><circle r="5.789473684210526" cx="53.333333333333336" cy="571.4285714285714" opacity="0.25"></circle><circle r="1.4473684210526314" cx="53.333333333333336" cy="571.4285714285714" fill="#0a97b4" stroke="none"></circle><circle r="5.789473684210526" cx="106.66666666666667" cy="571.4285714285714" opacity="0.25"></circle><circle r="1.4473684210526314" cx="106.66666666666667" cy="571.4285714285714" fill="#0a97b4" stroke="none"></circle><circle r="5.789473684210526" cx="160" cy="571.4285714285714" opacity="0.25"></circle><circle r="1.4473684210526314" cx="160" cy="571.4285714285714" fill="#0a97b4" stroke="none"></circle><circle r="5.789473684210526" cx="213.33333333333334" cy="571.4285714285714" opacity="0.25"></circle><circle r="1.4473684210526314" cx="213.33333333333334" cy="571.4285714285714" fill="#0a97b4" stroke="none"></circle><circle r="5.789473684210526" cx="266.6666666666667" cy="571.4285714285714" opacity="0.25"></circle><circle r="1.4473684210526314" cx="266.6666666666667" cy="571.4285714285714" fill="#0a97b4" stroke="none"></circle><circle r="5.789473684210526" cx="320" cy="571.4285714285714" opacity="0.25"></circle><circle r="1.4473684210526314" cx="320" cy="571.4285714285714" fill="#0a97b4" stroke="none"></circle><circle r="5.789473684210526" cx="373.3333333333333" cy="571.4285714285714" opacity="0.25"></circle><circle r="1.4473684210526314" cx="373.3333333333333" cy="571.4285714285714" fill="#0a97b4" stroke="none"></circle><circle r="5.789473684210526" cx="426.66666666666663" cy="571.4285714285714" opacity="0.25"></circle><circle r="1.4473684210526314" cx="426.66666666666663" cy="571.4285714285714" fill="#0a97b4" stroke="none"></circle><circle r="5.789473684210526" cx="479.99999999999994" cy="571.4285714285714" opacity="0.25"></circle><circle r="1.4473684210526314" cx="479.99999999999994" cy="571.4285714285714" fill="#0a97b4" stroke="none"></circle><circle r="5.789473684210526" cx="533.3333333333333" cy="571.4285714285714" opacity="0.25"></circle><circle r="1.4473684210526314" cx="533.3333333333333" cy="571.4285714285714" fill="#0a97b4" stroke="none"></circle><circle r="5.789473684210526" cx="586.6666666666666" cy="571.4285714285714" opacity="0.25"></circle><circle r="1.4473684210526314" cx="586.6666666666666" cy="571.4285714285714" fill="#0a97b4" stroke="none"></circle><circle r="5.789473684210526" cx="640" cy="571.4285714285714" opacity="0.25"></circle><circle r="1.4473684210526314" cx="640" cy="571.4285714285714" fill="#0a97b4" stroke="none"></circle><circle r="5.789473684210526" cx="693.3333333333334" cy="571.4285714285714" opacity="0.25"></circle><circle r="1.4473684210526314" cx="693.3333333333334" cy="571.4285714285714" fill="#0a97b4" stroke="none"></circle><circle r="5.789473684210526" cx="746.6666666666667" cy="571.4285714285714" opacity="0.25"></circle><circle r="1.4473684210526314" cx="746.6666666666667" cy="571.4285714285714" fill="#0a97b4" stroke="none"></circle><circle r="5.789473684210526" cx="800.0000000000001" cy="571.4285714285714" opacity="0.25"></circle><circle r="1.4473684210526314" cx="800.0000000000001" cy="571.4285714285714" fill="#0a97b4" stroke="none"></circle><circle r="5.789473684210526" cx="0" cy="628.5714285714286" opacity="0.25"></circle><circle r="1.4473684210526314" cx="0" cy="628.5714285714286" fill="#0a97b4" stroke="none"></circle><circle r="5.789473684210526" cx="53.333333333333336" cy="628.5714285714286" opacity="0.25"></circle><circle r="1.4473684210526314" cx="53.333333333333336" cy="628.5714285714286" fill="#0a97b4" stroke="none"></circle><circle r="5.789473684210526" cx="106.66666666666667" cy="628.5714285714286" opacity="0.25"></circle><circle r="1.4473684210526314" cx="106.66666666666667" cy="628.5714285714286" fill="#0a97b4" stroke="none"></circle><circle r="5.789473684210526" cx="160" cy="628.5714285714286" opacity="0.25"></circle><circle r="1.4473684210526314" cx="160" cy="628.5714285714286" fill="#0a97b4" stroke="none"></circle><circle r="5.789473684210526" cx="213.33333333333334" cy="628.5714285714286" opacity="0.25"></circle><circle r="1.4473684210526314" cx="213.33333333333334" cy="628.5714285714286" fill="#0a97b4" stroke="none"></circle><circle r="5.789473684210526" cx="266.6666666666667" cy="628.5714285714286" opacity="0.25"></circle><circle r="1.4473684210526314" cx="266.6666666666667" cy="628.5714285714286" fill="#0a97b4" stroke="none"></circle><circle r="5.789473684210526" cx="320" cy="628.5714285714286" opacity="0.25"></circle><circle r="1.4473684210526314" cx="320" cy="628.5714285714286" fill="#0a97b4" stroke="none"></circle><circle r="5.789473684210526" cx="373.3333333333333" cy="628.5714285714286" opacity="0.25"></circle><circle r="1.4473684210526314" cx="373.3333333333333" cy="628.5714285714286" fill="#0a97b4" stroke="none"></circle><circle r="5.789473684210526" cx="426.66666666666663" cy="628.5714285714286" opacity="0.25"></circle><circle r="1.4473684210526314" cx="426.66666666666663" cy="628.5714285714286" fill="#0a97b4" stroke="none"></circle><circle r="5.789473684210526" cx="479.99999999999994" cy="628.5714285714286" opacity="0.25"></circle><circle r="1.4473684210526314" cx="479.99999999999994" cy="628.5714285714286" fill="#0a97b4" stroke="none"></circle><circle r="5.789473684210526" cx="533.3333333333333" cy="628.5714285714286" opacity="0.25"></circle><circle r="1.4473684210526314" cx="533.3333333333333" cy="628.5714285714286" fill="#0a97b4" stroke="none"></circle><circle r="5.789473684210526" cx="586.6666666666666" cy="628.5714285714286" opacity="0.25"></circle><circle r="1.4473684210526314" cx="586.6666666666666" cy="628.5714285714286" fill="#0a97b4" stroke="none"></circle><circle r="5.789473684210526" cx="640" cy="628.5714285714286" opacity="0.25"></circle><circle r="1.4473684210526314" cx="640" cy="628.5714285714286" fill="#0a97b4" stroke="none"></circle><circle r="5.789473684210526" cx="693.3333333333334" cy="628.5714285714286" opacity="0.25"></circle><circle r="1.4473684210526314" cx="693.3333333333334" cy="628.5714285714286" fill="#0a97b4" stroke="none"></circle><circle r="5.789473684210526" cx="746.6666666666667" cy="628.5714285714286" opacity="0.25"></circle><circle r="1.4473684210526314" cx="746.6666666666667" cy="628.5714285714286" fill="#0a97b4" stroke="none"></circle><circle r="5.789473684210526" cx="800.0000000000001" cy="628.5714285714286" opacity="0.25"></circle><circle r="1.4473684210526314" cx="800.0000000000001" cy="628.5714285714286" fill="#0a97b4" stroke="none"></circle><circle r="5.789473684210526" cx="0" cy="685.7142857142857" opacity="0.25"></circle><circle r="1.4473684210526314" cx="0" cy="685.7142857142857" fill="#0a97b4" stroke="none"></circle><circle r="5.789473684210526" cx="53.333333333333336" cy="685.7142857142857" opacity="0.25"></circle><circle r="1.4473684210526314" cx="53.333333333333336" cy="685.7142857142857" fill="#0a97b4" stroke="none"></circle><circle r="5.789473684210526" cx="106.66666666666667" cy="685.7142857142857" opacity="0.25"></circle><circle r="1.4473684210526314" cx="106.66666666666667" cy="685.7142857142857" fill="#0a97b4" stroke="none"></circle><circle r="5.789473684210526" cx="160" cy="685.7142857142857" opacity="0.25"></circle><circle r="1.4473684210526314" cx="160" cy="685.7142857142857" fill="#0a97b4" stroke="none"></circle><circle r="5.789473684210526" cx="213.33333333333334" cy="685.7142857142857" opacity="0.25"></circle><circle r="1.4473684210526314" cx="213.33333333333334" cy="685.7142857142857" fill="#0a97b4" stroke="none"></circle><circle r="5.789473684210526" cx="266.6666666666667" cy="685.7142857142857" opacity="0.25"></circle><circle r="1.4473684210526314" cx="266.6666666666667" cy="685.7142857142857" fill="#0a97b4" stroke="none"></circle><circle r="5.789473684210526" cx="320" cy="685.7142857142857" opacity="0.25"></circle><circle r="1.4473684210526314" cx="320" cy="685.7142857142857" fill="#0a97b4" stroke="none"></circle><circle r="5.789473684210526" cx="373.3333333333333" cy="685.7142857142857" opacity="0.25"></circle><circle r="1.4473684210526314" cx="373.3333333333333" cy="685.7142857142857" fill="#0a97b4" stroke="none"></circle><circle r="5.789473684210526" cx="426.66666666666663" cy="685.7142857142857" opacity="0.25"></circle><circle r="1.4473684210526314" cx="426.66666666666663" cy="685.7142857142857" fill="#0a97b4" stroke="none"></circle><circle r="5.789473684210526" cx="479.99999999999994" cy="685.7142857142857" opacity="0.25"></circle><circle r="1.4473684210526314" cx="479.99999999999994" cy="685.7142857142857" fill="#0a97b4" stroke="none"></circle><circle r="5.789473684210526" cx="533.3333333333333" cy="685.7142857142857" opacity="0.25"></circle><circle r="1.4473684210526314" cx="533.3333333333333" cy="685.7142857142857" fill="#0a97b4" stroke="none"></circle><circle r="5.789473684210526" cx="586.6666666666666" cy="685.7142857142857" opacity="0.25"></circle><circle r="1.4473684210526314" cx="586.6666666666666" cy="685.7142857142857" fill="#0a97b4" stroke="none"></circle><circle r="5.789473684210526" cx="640" cy="685.7142857142857" opacity="0.25"></circle><circle r="1.4473684210526314" cx="640" cy="685.7142857142857" fill="#0a97b4" stroke="none"></circle><circle r="5.789473684210526" cx="693.3333333333334" cy="685.7142857142857" opacity="0.25"></circle><circle r="1.4473684210526314" cx="693.3333333333334" cy="685.7142857142857" fill="#0a97b4" stroke="none"></circle><circle r="5.789473684210526" cx="746.6666666666667" cy="685.7142857142857" opacity="0.25"></circle><circle r="1.4473684210526314" cx="746.6666666666667" cy="685.7142857142857" fill="#0a97b4" stroke="none"></circle><circle r="5.789473684210526" cx="800.0000000000001" cy="685.7142857142857" opacity="0.25"></circle><circle r="1.4473684210526314" cx="800.0000000000001" cy="685.7142857142857" fill="#0a97b4" stroke="none"></circle><circle r="5.789473684210526" cx="0" cy="742.8571428571428" opacity="0.25"></circle><circle r="1.4473684210526314" cx="0" cy="742.8571428571428" fill="#0a97b4" stroke="none"></circle><circle r="5.789473684210526" cx="53.333333333333336" cy="742.8571428571428" opacity="0.25"></circle><circle r="1.4473684210526314" cx="53.333333333333336" cy="742.8571428571428" fill="#0a97b4" stroke="none"></circle><circle r="5.789473684210526" cx="106.66666666666667" cy="742.8571428571428" opacity="0.25"></circle><circle r="1.4473684210526314" cx="106.66666666666667" cy="742.8571428571428" fill="#0a97b4" stroke="none"></circle><circle r="5.789473684210526" cx="160" cy="742.8571428571428" opacity="0.25"></circle><circle r="1.4473684210526314" cx="160" cy="742.8571428571428" fill="#0a97b4" stroke="none"></circle><circle r="5.789473684210526" cx="213.33333333333334" cy="742.8571428571428" opacity="0.25"></circle><circle r="1.4473684210526314" cx="213.33333333333334" cy="742.8571428571428" fill="#0a97b4" stroke="none"></circle><circle r="5.789473684210526" cx="266.6666666666667" cy="742.8571428571428" opacity="0.25"></circle><circle r="1.4473684210526314" cx="266.6666666666667" cy="742.8571428571428" fill="#0a97b4" stroke="none"></circle><circle r="5.789473684210526" cx="320" cy="742.8571428571428" opacity="0.25"></circle><circle r="1.4473684210526314" cx="320" cy="742.8571428571428" fill="#0a97b4" stroke="none"></circle><circle r="5.789473684210526" cx="373.3333333333333" cy="742.8571428571428" opacity="0.25"></circle><circle r="1.4473684210526314" cx="373.3333333333333" cy="742.8571428571428" fill="#0a97b4" stroke="none"></circle><circle r="5.789473684210526" cx="426.66666666666663" cy="742.8571428571428" opacity="0.25"></circle><circle r="1.4473684210526314" cx="426.66666666666663" cy="742.8571428571428" fill="#0a97b4" stroke="none"></circle><circle r="5.789473684210526" cx="479.99999999999994" cy="742.8571428571428" opacity="0.25"></circle><circle r="1.4473684210526314" cx="479.99999999999994" cy="742.8571428571428" fill="#0a97b4" stroke="none"></circle><circle r="5.789473684210526" cx="533.3333333333333" cy="742.8571428571428" opacity="0.25"></circle><circle r="1.4473684210526314" cx="533.3333333333333" cy="742.8571428571428" fill="#0a97b4" stroke="none"></circle><circle r="5.789473684210526" cx="586.6666666666666" cy="742.8571428571428" opacity="0.25"></circle><circle r="1.4473684210526314" cx="586.6666666666666" cy="742.8571428571428" fill="#0a97b4" stroke="none"></circle><circle r="5.789473684210526" cx="640" cy="742.8571428571428" opacity="0.25"></circle><circle r="1.4473684210526314" cx="640" cy="742.8571428571428" fill="#0a97b4" stroke="none"></circle><circle r="5.789473684210526" cx="693.3333333333334" cy="742.8571428571428" opacity="0.25"></circle><circle r="1.4473684210526314" cx="693.3333333333334" cy="742.8571428571428" fill="#0a97b4" stroke="none"></circle><circle r="5.789473684210526" cx="746.6666666666667" cy="742.8571428571428" opacity="0.25"></circle><circle r="1.4473684210526314" cx="746.6666666666667" cy="742.8571428571428" fill="#0a97b4" stroke="none"></circle><circle r="5.789473684210526" cx="800.0000000000001" cy="742.8571428571428" opacity="0.25"></circle><circle r="1.4473684210526314" cx="800.0000000000001" cy="742.8571428571428" fill="#0a97b4" stroke="none"></circle><circle r="5.789473684210526" cx="0" cy="799.9999999999999" opacity="0.25"></circle><circle r="1.4473684210526314" cx="0" cy="799.9999999999999" fill="#0a97b4" stroke="none"></circle><circle r="5.789473684210526" cx="53.333333333333336" cy="799.9999999999999" opacity="0.25"></circle><circle r="1.4473684210526314" cx="53.333333333333336" cy="799.9999999999999" fill="#0a97b4" stroke="none"></circle><circle r="5.789473684210526" cx="106.66666666666667" cy="799.9999999999999" opacity="0.25"></circle><circle r="1.4473684210526314" cx="106.66666666666667" cy="799.9999999999999" fill="#0a97b4" stroke="none"></circle><circle r="5.789473684210526" cx="160" cy="799.9999999999999" opacity="0.25"></circle><circle r="1.4473684210526314" cx="160" cy="799.9999999999999" fill="#0a97b4" stroke="none"></circle><circle r="5.789473684210526" cx="213.33333333333334" cy="799.9999999999999" opacity="0.25"></circle><circle r="1.4473684210526314" cx="213.33333333333334" cy="799.9999999999999" fill="#0a97b4" stroke="none"></circle><circle r="5.789473684210526" cx="266.6666666666667" cy="799.9999999999999" opacity="0.25"></circle><circle r="1.4473684210526314" cx="266.6666666666667" cy="799.9999999999999" fill="#0a97b4" stroke="none"></circle><circle r="5.789473684210526" cx="320" cy="799.9999999999999" opacity="0.25"></circle><circle r="1.4473684210526314" cx="320" cy="799.9999999999999" fill="#0a97b4" stroke="none"></circle><circle r="5.789473684210526" cx="373.3333333333333" cy="799.9999999999999" opacity="0.25"></circle><circle r="1.4473684210526314" cx="373.3333333333333" cy="799.9999999999999" fill="#0a97b4" stroke="none"></circle><circle r="5.789473684210526" cx="426.66666666666663" cy="799.9999999999999" opacity="0.25"></circle><circle r="1.4473684210526314" cx="426.66666666666663" cy="799.9999999999999" fill="#0a97b4" stroke="none"></circle><circle r="5.789473684210526" cx="479.99999999999994" cy="799.9999999999999" opacity="0.25"></circle><circle r="1.4473684210526314" cx="479.99999999999994" cy="799.9999999999999" fill="#0a97b4" stroke="none"></circle><circle r="5.789473684210526" cx="533.3333333333333" cy="799.9999999999999" opacity="0.25"></circle><circle r="1.4473684210526314" cx="533.3333333333333" cy="799.9999999999999" fill="#0a97b4" stroke="none"></circle><circle r="5.789473684210526" cx="586.6666666666666" cy="799.9999999999999" opacity="0.25"></circle><circle r="1.4473684210526314" cx="586.6666666666666" cy="799.9999999999999" fill="#0a97b4" stroke="none"></circle><circle r="5.789473684210526" cx="640" cy="799.9999999999999" opacity="0.25"></circle><circle r="1.4473684210526314" cx="640" cy="799.9999999999999" fill="#0a97b4" stroke="none"></circle><circle r="5.789473684210526" cx="693.3333333333334" cy="799.9999999999999" opacity="0.25"></circle><circle r="1.4473684210526314" cx="693.3333333333334" cy="799.9999999999999" fill="#0a97b4" stroke="none"></circle><circle r="5.789473684210526" cx="746.6666666666667" cy="799.9999999999999" opacity="0.25"></circle><circle r="1.4473684210526314" cx="746.6666666666667" cy="799.9999999999999" fill="#0a97b4" stroke="none"></circle><circle r="5.789473684210526" cx="800.0000000000001" cy="799.9999999999999" opacity="0.25"></circle><circle r="1.4473684210526314" cx="800.0000000000001" cy="799.9999999999999" fill="#0a97b4" stroke="none"></circle></g></svg>