<svg width="62" height="35" viewBox="0 0 62 35" fill="none" xmlns="http://www.w3.org/2000/svg">
<path d="M13.716 27.4764C18.311 27.4764 22.5606 25.2299 25.1172 21.4281L20.6258 18.3867C19.0711 20.7023 16.4799 22.0502 13.716 22.0502C11.5049 22.0502 9.43192 21.1862 7.84265 19.6309C6.28794 18.0757 5.42421 15.9674 5.42421 13.7555C5.42421 11.5435 6.28794 9.43529 7.84265 7.88002C9.43192 6.29019 11.5049 5.42615 13.716 5.42615C16.5145 5.42615 19.1057 6.80861 20.6258 9.12423L25.1518 6.11738C22.5951 2.28106 18.311 0 13.716 0C11.8849 0 10.0884 0.380175 8.39544 1.10597C6.73709 1.7972 5.28602 2.76492 4.0077 4.04369C2.76393 5.28791 1.762 6.77405 1.07102 8.39844C0.345489 10.092 0 11.8892 0 13.7555C0 15.6218 0.345489 17.419 1.07102 19.1125C1.762 20.7369 2.76393 22.1885 4.0077 23.4673C5.28602 24.7115 6.73709 25.7137 8.39544 26.405C10.0884 27.1308 11.8849 27.4764 13.716 27.4764Z" fill="url(#paint0_linear_17_31)"/>
<path d="M26.4382 9.0551V27.269H31.6552V7.32703L26.4382 9.0551Z" fill="url(#paint1_linear_17_31)"/>
<path d="M53.4605 13.8246C52.9768 12.6841 52.2513 11.6127 51.353 10.7141C50.4547 9.81548 49.4183 9.08969 48.2436 8.60583C46.9998 8.0874 45.7215 7.81091 44.4087 7.81091C43.0612 7.81091 41.7829 8.0874 40.5737 8.60583C39.399 9.08969 38.328 9.81548 37.4297 10.7141C36.5314 11.6127 35.8059 12.6495 35.3222 13.8246C34.804 15.0688 34.5621 16.3476 34.5621 17.6609V32.3841L39.7445 34.1122V26.3359C39.9864 26.5087 40.2628 26.6124 40.5737 26.7506C41.7829 27.269 43.0612 27.511 44.4087 27.511C45.7215 27.511 46.9998 27.269 48.2436 26.7506C49.3837 26.2667 50.4547 25.541 51.353 24.6424C52.2513 23.7438 52.9768 22.6724 53.4605 21.4973C53.9788 20.2876 54.2552 19.0088 54.2552 17.6609C54.2552 16.3476 53.9788 15.0688 53.4605 13.8246ZM44.4087 22.3267C41.8175 22.3267 39.7445 20.253 39.7445 17.6609C39.7445 15.1034 41.8175 12.9951 44.4087 12.9951C46.9653 12.9951 49.0728 15.1034 49.0728 17.6609C49.0728 20.253 46.9653 22.3267 44.4087 22.3267Z" fill="url(#paint2_linear_17_31)"/>
<path d="M56.0614 9.0551V27.269H61.2783V7.32703L56.0614 9.0551Z" fill="url(#paint3_linear_17_31)"/>
<defs>
<linearGradient id="paint0_linear_17_31" x1="12.5759" y1="0" x2="12.5759" y2="27.4764" gradientUnits="userSpaceOnUse">
<stop stop-color="#06B6D4"/>
<stop offset="1" stop-color="#0E7490"/>
</linearGradient>
<linearGradient id="paint1_linear_17_31" x1="29.0467" y1="7.32703" x2="29.0467" y2="27.269" gradientUnits="userSpaceOnUse">
<stop stop-color="#06B6D4"/>
<stop offset="1" stop-color="#0E7490"/>
</linearGradient>
<linearGradient id="paint2_linear_17_31" x1="44.4086" y1="7.81091" x2="44.4086" y2="34.1122" gradientUnits="userSpaceOnUse">
<stop stop-color="#06B6D4"/>
<stop offset="1" stop-color="#0E7490"/>
</linearGradient>
<linearGradient id="paint3_linear_17_31" x1="58.6699" y1="7.32703" x2="58.6699" y2="27.269" gradientUnits="userSpaceOnUse">
<stop stop-color="#06B6D4"/>
<stop offset="1" stop-color="#0E7490"/>
</linearGradient>
</defs>
</svg>
